<svg xmlns="http://www.w3.org/2000/svg" viewBox="0 0 300 300" width="300" height="300" preserveAspectRatio="xMidYMid meet" style="width: 100%; height: 100%; transform: translate3d(0px, 0px, 0px);"><defs><clipPath id="__lottie_element_2"><rect width="300" height="300" x="0" y="0"></rect></clipPath></defs><g clip-path="url(#__lottie_element_2)"><g transform="matrix(1,0,0,1.0133899450302124,24.011993408203125,36.246978759765625)" opacity="1" style="display: block;"><g opacity="1" transform="matrix(1,0,0,1,125.95899963378906,112.25)"><path fill="rgb(246,47,62)" fill-opacity="1" d=" M82.47000122070312,-26 C84.03399658203125,-25.16900062561035 68.55699920654297,-84.5 28.469999313354492,-84.5 C4.0289998054504395,-84.5 1.1139999628067017,-73.04199981689453 0.5,-72.0469970703125 C-0.1120000034570694,-73.04199981689453 -8.470000267028809,-84 -26.969999313354492,-84 C-69.97000122070312,-84 -82.47000122070312,-28.5 -81.97000122070312,-28.5 C-81.97000122070312,-28.5 -91.23200225830078,0.01600000075995922 -110.20999908447266,0.0010000000474974513 C-110.47000122070312,0 -97.47000122070312,-0.9869999885559082 -87.97000122070312,26 C-83.52999877929688,38.612998962402344 -74.03099822998047,51.145999908447266 -64.85900115966797,61.68600082397461 C-41.470001220703125,88.56400299072266 -0.22100000083446503,85.60299682617188 -0.04800000041723251,85.79900360107422 C-0.04800000041723251,85.79900360107422 -0.028999999165534973,112 -0.028999999165534973,112 C-0.028999999165534973,112 0,111.9749984741211 0,111.9749984741211 C0,111.9749984741211 0.029999999329447746,112 0.029999999329447746,112 C0.029999999329447746,112 -0.09799999743700027,86.0459976196289 -0.09799999743700027,86.0459976196289 C-0.3889999985694885,85.9739990234375 42.27899932861328,88.06999969482422 65.11699676513672,62.41400146484375 C74.47799682617188,51.89799880981445 84.31700134277344,37.83700180053711 88.47000122070312,25.01300048828125 C97.52899932861328,-2.9609999656677246 110.52899932861328,0 110.20999908447266,0.0010000000474974513 C90.43000030517578,0.01600000075995922 82.52899932861328,-26 82.47000122070312,-26z"></path></g></g><g style="display: block;" transform="matrix(1,0,0,1,57.74999237060547,162.3820037841797)" opacity="1"><g opacity="1" transform="matrix(1,0,0,1.0106799602508545,92.26100158691406,38.52299880981445)"><path fill="rgb(196,0,6)" fill-opacity="1" d=" M-1.0119999647140503,19.094999313354492 C-64.01200103759766,19.094999313354492 -82.01200103759766,-37.904998779296875 -91.98799896240234,-35.5369987487793 C-92.01200103759766,-34.904998779296875 -88.99099731445312,-29.316999435424805 -87.79900360107422,-26.635000228881836 C-83.79900360107422,-17.635000228881836 -78.79900360107422,4.364999771118164 -53.79899978637695,21.364999771118164 C-30.006000518798828,37.54399871826172 -3.5160000324249268,36.513999938964844 -1.0119999647140503,36.37699890136719 C1.496999979019165,36.51499938964844 29.197999954223633,38.27299880981445 52.98899841308594,22.094999313354492 C77.98899841308594,5.09499979019165 83.98899841308594,-16.905000686645508 87.98899841308594,-25.905000686645508 C89.18000030517578,-28.586999893188477 92.01200103759766,-35.27299880981445 91.98899841308594,-35.904998779296875 C82.01200103759766,-38.27299880981445 61.987998962402344,19.094999313354492 -1.0119999647140503,19.094999313354492z"></path></g></g><g transform="matrix(1,0,0,1,40.75,118.02800750732422)" opacity="1" style="display: block;"><g opacity="1" transform="matrix(1,0,0,1,54.75,16.111000061035156)"><path fill="rgb(200,0,0)" fill-opacity="1" d=" M1.5,1.8609999418258667 C-16.5,10.861000061035156 -54.5,15.861000061035156 -54.5,15.861000061035156 C-54.5,15.861000061035156 -10.5,15.861000061035156 7.5,13.861000061035156 C25.5,11.861000061035156 48.5,10.861000061035156 54.5,2.8610000610351562 C54.5,2.8610000610351562 54.5,-11.140000343322754 54.5,-11.140000343322754 C44.5,-11.140000343322754 41.457000732421875,-15.861000061035156 31.457000732421875,-15.861000061035156 C21.457000732421875,-15.861000061035156 19.5,-7.138999938964844 1.5,1.8609999418258667z"></path></g><g opacity="1" transform="matrix(1,0,0,1,163.76199340820312,16.111000061035156)"><path fill="rgb(200,0,0)" fill-opacity="1" d=" M-1.5,1.8609999418258667 C-19.5,-7.138999938964844 -21.457000732421875,-15.861000061035156 -31.457000732421875,-15.861000061035156 C-41.457000732421875,-15.861000061035156 -44.5,-11.140000343322754 -54.5,-11.140000343322754 C-54.5,-11.140000343322754 -54.5,2.8610000610351562 -54.5,2.8610000610351562 C-48.5,10.861000061035156 -25.5,11.861000061035156 -7.5,13.861000061035156 C10.5,15.861000061035156 54.5,15.861000061035156 54.5,15.861000061035156 C54.5,15.861000061035156 16.5,10.861000061035156 -1.5,1.8609999418258667z"></path></g></g><g style="display: block;" transform="matrix(1,0,0,1,185.38999938964844,169.60699462890625)" opacity="1"><g opacity="1" transform="matrix(1,0,0,1,5.0229997634887695,4.241000175476074)"><path fill="rgb(255,255,255)" fill-opacity="1" d=" M3.8980000019073486,-2.25 C4.77400016784668,-0.7319999933242798 3.740000009536743,1.50600004196167 1.5870000123977661,2.747999906539917 C-0.5649999976158142,3.990999937057495 -3.0209999084472656,3.7679998874664307 -3.8980000019073486,2.25 C-4.77400016784668,0.7310000061988831 -3.740000009536743,-1.5069999694824219 -1.5870000123977661,-2.749000072479248 C0.5649999976158142,-3.992000102996826 3.0209999084472656,-3.7690000534057617 3.8980000019073486,-2.25z"></path></g></g><g transform="matrix(1,0,0,1,135.75,136.74899291992188)" opacity="1" style="display: block;"><g opacity="1" transform="matrix(1,0,0,1,7.25,8.631999969482422)"><path fill="rgb(13,8,56)" fill-opacity="1" d=" M-7,-1.61899995803833 C-3,8.380999565124512 7,7.61899995803833 7,7.61899995803833 C7,7.61899995803833 7,-8.381999969482422 7,-8.381999969482422 C7,-8.381999969482422 3.986999988555908,-3.9739999771118164 -7,-1.61899995803833z"></path></g><g opacity="1" transform="matrix(1,0,0,1,21.261999130249023,8.631999969482422)"><path fill="rgb(13,8,56)" fill-opacity="1" d=" M-7,-8.381999969482422 C-7,-8.381999969482422 -7,7.618000030517578 -7,7.618000030517578 C-7,7.618000030517578 3,8.381999969482422 7,-1.6180000305175781 C-3.986999988555908,-3.9730000495910645 -7,-8.381999969482422 -7,-8.381999969482422z"></path></g></g><g transform="matrix(1,0,0,1,162.75,77.7509994506836)" opacity="1" style="display: block;"><g opacity="1" transform="matrix(1,0,0,1,17.25,5.75)"><path fill="rgb(255,255,255)" fill-opacity="1" d=" M15.946000099182129,-0.49900001287460327 C15.946000099182129,-0.49900001287460327 15.947999954223633,-0.5 15.947999954223633,-0.5 C15.947999954223633,-0.5 12,-5.5 2,-5.5 C-8,-5.5 -17,-0.5 -17,-0.5 C-17,-0.5 -7,-2.5 -1,-2.5 C5,-2.5 9.008999824523926,0.5920000076293945 10.005000114440918,2.0460000038146973 C11,3.5 11.583000183105469,5.5 13.5,5.5 C15.432000160217285,5.5 17,3.933000087738037 17,2 C17,1.0199999809265137 16.5939998626709,0.13600000739097595 15.946000099182129,-0.49900001287460327z"></path></g></g><g style="display: block;" transform="matrix(1,0,0,1,97.75,163.75)" opacity="1"><g opacity="1" transform="matrix(1,0,0,1,41.25,11.373000144958496)"><path fill="rgb(255,255,255)" fill-opacity="1" d=" M41,4.877999782562256 C41,3.2209999561309814 39.65700149536133,1.878000020980835 38,1.878000020980835 C37.44300079345703,1.878000020980835 36.93000030517578,2.0390000343322754 36.481998443603516,2.302999973297119 C32.61600112915039,3.3320000171661377 21.76799964904785,5.877999782562256 9,5.877999782562256 C-19.070999145507812,5.877999782562256 -41,-11.121999740600586 -41,-11.121999740600586 C-41,-11.121999740600586 -40.534000396728516,-10.034000396728516 -40.534000396728516,-10.034000396728516 C-40.534000396728516,-10.034000396728516 -18.604999542236328,11.121999740600586 9.465999603271484,10.96500015258789 C25,10.876999855041504 39,7.877999782562256 39,7.877999782562256 C39,7.877999782562256 38.97100067138672,7.702000141143799 38.97100067138672,7.702000141143799 C40.14799880981445,7.296999931335449 41,6.192999839782715 41,4.877999782562256z"></path></g></g></g></svg>