<svg xmlns="http://www.w3.org/2000/svg" viewBox="0 0 116 116" width="116" height="116" preserveAspectRatio="xMidYMid meet" style="width: 100%; height: 100%; transform: translate3d(0px, 0px, 0px);"><defs><clipPath id="__lottie_element_2"><rect width="116" height="116" x="0" y="0"></rect></clipPath><clipPath id="__lottie_element_4"><path d="M0,0 L116,0 L116,116 L0,116z"></path></clipPath></defs><g clip-path="url(#__lottie_element_2)"><g transform="matrix(1,0,0,1,58,58)" opacity="0.009364000000019388" style="display: none;"><g opacity="1" transform="matrix(1,0,0,1,0,0)"><path stroke-linecap="butt" stroke-linejoin="miter" fill-opacity="0" stroke-miterlimit="4" stroke="rgb(255,0,255)" stroke-opacity="1" stroke-width="0" d="M0 0"></path></g><g opacity="1" transform="matrix(1,0,0,1,-0.5,-0.5)"><path fill="rgb(255,255,255)" fill-opacity="1" d=" M0,-39.5 C21.800050735473633,-39.5 39.5,-21.800050735473633 39.5,0 C39.5,21.800050735473633 21.800050735473633,39.5 0,39.5 C-21.800050735473633,39.5 -39.5,21.800050735473633 -39.5,0 C-39.5,-21.800050735473633 -21.800050735473633,-39.5 0,-39.5z"></path><path stroke-linecap="butt" stroke-linejoin="miter" fill-opacity="0" stroke-miterlimit="4" stroke="rgb(234,234,234)" stroke-opacity="1" stroke-width="2" d=" M0,-39.5 C21.800050735473633,-39.5 39.5,-21.800050735473633 39.5,0 C39.5,21.800050735473633 21.800050735473633,39.5 0,39.5 C-21.800050735473633,39.5 -39.5,21.800050735473633 -39.5,0 C-39.5,-21.800050735473633 -21.800050735473633,-39.5 0,-39.5z"></path></g></g><g transform="matrix(1,0,0,1,58,58)" opacity="1" style="display: block;"><g opacity="1" transform="matrix(1,0,0,1,0,0)"><path stroke-linecap="butt" stroke-linejoin="miter" fill-opacity="0" stroke-miterlimit="4" stroke="rgb(255,255,255)" stroke-opacity="1" stroke-width="0" d="M0 0"></path></g><g opacity="1" transform="matrix(1,0,0,1,-0.5,-0.5)"><path fill="rgb(0,131,255)" fill-opacity="1" d=" M0,-39.5 C21.800050735473633,-39.5 39.5,-21.800050735473633 39.5,0 C39.5,21.800050735473633 21.800050735473633,39.5 0,39.5 C-21.800050735473633,39.5 -39.5,21.800050735473633 -39.5,0 C-39.5,-21.800050735473633 -21.800050735473633,-39.5 0,-39.5z"></path><path stroke-linecap="butt" stroke-linejoin="miter" fill-opacity="0" stroke-miterlimit="4" stroke="rgb(255,255,255)" stroke-opacity="1" stroke-width="2" d=" M0,-39.5 C21.800050735473633,-39.5 39.5,-21.800050735473633 39.5,0 C39.5,21.800050735473633 21.800050735473633,39.5 0,39.5 C-21.800050735473633,39.5 -39.5,21.800050735473633 -39.5,0 C-39.5,-21.800050735473633 -21.800050735473633,-39.5 0,-39.5z"></path></g></g><g transform="matrix(0.16666999459266663,0,0,0.16666999459266663,58.00016784667969,56.5004997253418)" opacity="0.02213500000002071" style="display: none;"><g opacity="1" transform="matrix(6,0,0,6,0,0)"><path fill="rgb(127,143,153)" fill-opacity="1" d=" M-15.300000190734863,-4.3420000076293945 C-15.300000190734863,-4.3420000076293945 -11.899999618530273,-4.3420000076293945 -11.899999618530273,-4.3420000076293945 C-10.960000038146973,-4.3420000076293945 -10.199999809265137,-3.562000036239624 -10.199999809265137,-2.6019999980926514 C-10.199999809265137,-2.6019999980926514 -10.199999809265137,14.767999649047852 -10.199999809265137,14.767999649047852 C-10.199999809265137,15.718000411987305 -10.960000038146973,16.49799919128418 -11.899999618530273,16.49799919128418 C-11.899999618530273,16.49799919128418 -15.300000190734863,16.49799919128418 -15.300000190734863,16.49799919128418 C-16.239999771118164,16.49799919128418 -17,15.718000411987305 -17,14.767999649047852 C-17,14.767999649047852 -17,-2.6019999980926514 -17,-2.6019999980926514 C-17,-3.562000036239624 -16.239999771118164,-4.3420000076293945 -15.300000190734863,-4.3420000076293945z M4.1579999923706055,-4.340000152587891 C4.1579999923706055,-4.340000152587891 13.307999610900879,-4.340000152587891 13.307999610900879,-4.340000152587891 C13.307999610900879,-4.340000152587891 18.398000717163086,-4.079999923706055 16.628000259399414,2.0299999713897705 C16.33799934387207,2.9200000762939453 12.637999534606934,14.029999732971191 12.637999534606934,14.029999732971191 C12.637999534606934,14.029999732971191 11.338000297546387,16.489999771118164 7.7779998779296875,16.489999771118164 C7.7779998779296875,16.489999771118164 -5.122000217437744,16.489999771118164 -5.122000217437744,16.489999771118164 C-7.6620001792907715,16.489999771118164 -8.531999588012695,14.9399995803833 -8.501999855041504,13.020000457763672 C-8.501999855041504,13.020000457763672 -8.501999855041504,-0.8700000047683716 -8.501999855041504,-0.8700000047683716 C-8.501999855041504,-2.5899999141693115 -7.932000160217285,-4.400000095367432 -6.611999988555908,-5.449999809265137 C0.9580000042915344,-12.010000228881836 -0.7720000147819519,-13.4399995803833 0.9580000042915344,-15.579999923706055 C2.628000020980835,-17.540000915527344 6.3979997634887695,-16.450000762939453 6.118000030517578,-11.479999542236328 C5.438000202178955,-7.130000114440918 4.1579999923706055,-4.340000152587891 4.1579999923706055,-4.340000152587891z"></path><g opacity="1" transform="matrix(1,0,0,1,0,0)"></g></g></g><g transform="matrix(0.1677117496728897,0,0,0.1677117496728897,58.000160217285156,56.50050354003906)" opacity="1" style="display: block;"><g opacity="1" transform="matrix(6,0,0,6,0,0)"><path fill="rgb(255,255,255)" fill-opacity="1" d=" M-15.300000190734863,-4.3420000076293945 C-15.300000190734863,-4.3420000076293945 -11.899999618530273,-4.3420000076293945 -11.899999618530273,-4.3420000076293945 C-10.960000038146973,-4.3420000076293945 -10.199999809265137,-3.562000036239624 -10.199999809265137,-2.6019999980926514 C-10.199999809265137,-2.6019999980926514 -10.199999809265137,14.767999649047852 -10.199999809265137,14.767999649047852 C-10.199999809265137,15.718000411987305 -10.960000038146973,16.49799919128418 -11.899999618530273,16.49799919128418 C-11.899999618530273,16.49799919128418 -15.300000190734863,16.49799919128418 -15.300000190734863,16.49799919128418 C-16.239999771118164,16.49799919128418 -17,15.718000411987305 -17,14.767999649047852 C-17,14.767999649047852 -17,-2.6019999980926514 -17,-2.6019999980926514 C-17,-3.562000036239624 -16.239999771118164,-4.3420000076293945 -15.300000190734863,-4.3420000076293945z M4.1579999923706055,-4.340000152587891 C4.1579999923706055,-4.340000152587891 13.307999610900879,-4.340000152587891 13.307999610900879,-4.340000152587891 C13.307999610900879,-4.340000152587891 18.398000717163086,-4.079999923706055 16.628000259399414,2.0299999713897705 C16.33799934387207,2.9200000762939453 12.637999534606934,14.029999732971191 12.637999534606934,14.029999732971191 C12.637999534606934,14.029999732971191 11.338000297546387,16.489999771118164 7.7779998779296875,16.489999771118164 C7.7779998779296875,16.489999771118164 -5.122000217437744,16.489999771118164 -5.122000217437744,16.489999771118164 C-7.6620001792907715,16.489999771118164 -8.531999588012695,14.9399995803833 -8.501999855041504,13.020000457763672 C-8.501999855041504,13.020000457763672 -8.501999855041504,-0.8700000047683716 -8.501999855041504,-0.8700000047683716 C-8.501999855041504,-2.5899999141693115 -7.932000160217285,-4.400000095367432 -6.611999988555908,-5.449999809265137 C0.9580000042915344,-12.010000228881836 -0.7720000147819519,-13.4399995803833 0.9580000042915344,-15.579999923706055 C2.628000020980835,-17.540000915527344 6.3979997634887695,-16.450000762939453 6.118000030517578,-11.479999542236328 C5.438000202178955,-7.130000114440918 4.1579999923706055,-4.340000152587891 4.1579999923706055,-4.340000152587891z"></path><g opacity="1" transform="matrix(1,0,0,1,0,0)"></g></g></g><g transform="matrix(0.16661332547664642,0,0,0.16661332547664642,57.5,57.5)" opacity="0.00039037037037772395" style="display: none;"><g opacity="1" transform="matrix(6,0,0,6,0,0)"><path fill="rgb(255,153,178)" fill-opacity="1" d=" M0,40 C22.09000015258789,40 40,22.09000015258789 40,0 C40,-22.09000015258789 22.09000015258789,-40 0,-40 C-22.09000015258789,-40 -40,-22.09000015258789 -40,0 C-40,22.09000015258789 -22.09000015258789,40 0,40z"></path></g></g><g clip-path="url(#__lottie_element_4)" transform="matrix(1,0,0,1,0,-1.5)" opacity="1" style="display: block;"><g transform="matrix(0.16666999459266663,0,0,0.16666999459266663,52.66691589355469,94.00067138671875)" opacity="1" style="display: block;"><g opacity="0" transform="matrix(4,0,0,4,0,92)"><path fill="rgb(76,255,255)" fill-opacity="1" d=" M0,2 C1.100000023841858,2 2,1.100000023841858 2,0 C2,-1.100000023841858 1.100000023841858,-2 0,-2 C-1.100000023841858,-2 -2,-1.100000023841858 -2,0 C-2,1.100000023841858 -1.100000023841858,2 0,2z"></path></g></g><g transform="matrix(0.11785348504781723,0.11785348504781723,-0.11785348504781723,0.11785348504781723,30.046403884887695,81.11006927490234)" opacity="1" style="display: block;"><g opacity="0" transform="matrix(4,0,0,4,0,92)"><path fill="rgb(5,127,0)" fill-opacity="1" d=" M0,2 C1.100000023841858,2 2,1.100000023841858 2,0 C2,-1.100000023841858 1.100000023841858,-2 0,-2 C-1.100000023841858,-2 -2,-1.100000023841858 -2,0 C-2,1.100000023841858 -1.100000023841858,2 0,2z"></path></g></g><g transform="matrix(0,0.16666999459266663,-0.16666999459266663,0,23.166324615478516,55.999916076660156)" opacity="1" style="display: block;"><g opacity="0" transform="matrix(4,0,0,4,0,92)"><path fill="rgb(255,130,255)" fill-opacity="1" d=" M0,2 C1.100000023841858,2 2,1.100000023841858 2,0 C2,-1.100000023841858 1.100000023841858,-2 0,-2 C-1.100000023841858,-2 -2,-1.100000023841858 -2,0 C-2,1.100000023841858 -1.100000023841858,2 0,2z"></path></g></g><g transform="matrix(-0.11785348504781723,0.11785348504781723,-0.11785348504781723,-0.11785348504781723,36.05693054199219,33.37940216064453)" opacity="1" style="display: block;"><g opacity="0" transform="matrix(4,0,0,4,0,92)"><path fill="rgb(76,76,255)" fill-opacity="1" d=" M0,2 C1.100000023841858,2 2,1.100000023841858 2,0 C2,-1.100000023841858 1.100000023841858,-2 0,-2 C-1.100000023841858,-2 -2,-1.100000023841858 -2,0 C-2,1.100000023841858 -1.100000023841858,2 0,2z"></path></g></g><g transform="matrix(-0.16666999459266663,0,0,-0.16666999459266663,61.167083740234375,26.499324798583984)" opacity="1" style="display: block;"><g opacity="0" transform="matrix(4,0,0,4,0,92)"><path fill="rgb(127,0,255)" fill-opacity="1" d=" M0,2 C1.100000023841858,2 2,1.100000023841858 2,0 C2,-1.100000023841858 1.100000023841858,-2 0,-2 C-1.100000023841858,-2 -2,-1.100000023841858 -2,0 C-2,1.100000023841858 -1.100000023841858,2 0,2z"></path></g></g><g transform="matrix(-0.11785348504781723,-0.11785348504781723,0.11785348504781723,-0.11785348504781723,83.78759765625,39.389930725097656)" opacity="1" style="display: block;"><g opacity="0" transform="matrix(4,0,0,4,0,92)"><path fill="rgb(255,130,0)" fill-opacity="1" d=" M0,2 C1.100000023841858,2 2,1.100000023841858 2,0 C2,-1.100000023841858 1.100000023841858,-2 0,-2 C-1.100000023841858,-2 -2,-1.100000023841858 -2,0 C-2,1.100000023841858 -1.100000023841858,2 0,2z"></path></g></g><g transform="matrix(0,-0.16666999459266663,0.16666999459266663,0,90.66767883300781,64.50008392333984)" opacity="1" style="display: block;"><g opacity="0" transform="matrix(4,0,0,4,0,92)"><path fill="rgb(255,130,0)" fill-opacity="1" d=" M0,2 C1.100000023841858,2 2,1.100000023841858 2,0 C2,-1.100000023841858 1.100000023841858,-2 0,-2 C-1.100000023841858,-2 -2,-1.100000023841858 -2,0 C-2,1.100000023841858 -1.100000023841858,2 0,2z"></path></g></g><g transform="matrix(0,-0.16666999459266663,0.16666999459266663,0,90.66767883300781,64.50008392333984)" opacity="1" style="display: block;"><g opacity="0" transform="matrix(4,0,0,4,0,92)"><path fill="rgb(0,255,127)" fill-opacity="1" d=" M0,2 C1.100000023841858,2 2,1.100000023841858 2,0 C2,-1.100000023841858 1.100000023841858,-2 0,-2 C-1.100000023841858,-2 -2,-1.100000023841858 -2,0 C-2,1.100000023841858 -1.100000023841858,2 0,2z"></path></g></g><g transform="matrix(0.11785348504781723,-0.11785348504781723,0.11785348504781723,0.11785348504781723,77.77706909179688,87.12059783935547)" opacity="1" style="display: block;"><g opacity="0" transform="matrix(4,0,0,4,0,92)"><path fill="rgb(5,130,255)" fill-opacity="1" d=" M0,2 C1.100000023841858,2 2,1.100000023841858 2,0 C2,-1.100000023841858 1.100000023841858,-2 0,-2 C-1.100000023841858,-2 -2,-1.100000023841858 -2,0 C-2,1.100000023841858 -1.100000023841858,2 0,2z"></path></g></g></g></g></svg>