<svg xmlns="http://www.w3.org/2000/svg" version="1.1" xmlns:xlink="http://www.w3.org/1999/xlink" xmlns:svgjs="http://svgjs.com/svgjs" width="512" height="512" x="0" y="0" viewBox="0 0 682.66669 682.66669" style="enable-background:new 0 0 512 512" xml:space="preserve" class=""><g><defs id="defs373"><clipPath clipPathUnits="userSpaceOnUse" id="clipPath383"><path d="M 0,512 H 512 V 0 H 0 Z" id="path381" fill="#000000" data-original="#000000" class=""></path></clipPath></defs><g id="g375" transform="matrix(1.3333333,0,0,-1.3333333,0,682.66667)"><g id="g377"><g id="g379" clip-path="url(#clipPath383)"><g id="g385" transform="translate(184.1338,163.9282)"><path d="M 0,0 C 0,91.341 74.704,165.234 166.347,163.916 255.118,162.638 327.302,89.837 327.863,1.06 c 0.314,-49.718 -21.511,-94.34 -56.191,-124.606 -3.659,-3.194 -3.132,-9.023 1.048,-11.496 l 30.89,-18.277 c 4.994,-2.954 2.897,-10.611 -2.905,-10.609 l -139.877,0.034 C 71.725,-162.238 0,-89.5 0,0" style="fill-opacity:1;fill-rule:nonzero;stroke:none" id="path387" fill="#7acaa6" data-original="#7acaa6" class=""></path></g><g id="g389" transform="translate(487.7437,10.6094)"><path d="m 0,0 -30.89,18.276 c -4.18,2.474 -4.707,8.303 -1.047,11.497 34.679,30.266 56.504,74.888 56.19,124.605 -0.561,88.778 -72.745,161.579 -161.516,162.856 -6.042,0.087 -12.008,-0.161 -17.886,-0.712 82.703,-7.799 147.963,-77.749 148.497,-162.144 0.314,-49.717 -21.512,-94.339 -56.191,-124.605 -3.659,-3.194 -3.133,-9.023 1.048,-11.497 L -30.905,0 c 4.966,-2.938 2.916,-10.521 -2.814,-10.602 l 30.814,-0.007 C 2.897,-10.611 4.994,-2.955 0,0" style="fill-opacity:1;fill-rule:nonzero;stroke:none" id="path391" fill="#57be92" data-original="#57be92" class=""></path></g><g id="g393" transform="translate(354.3384,327.7397)"><path d="m 0,0 c -1.282,0.049 -2.568,0.085 -3.857,0.104 -91.644,1.319 -166.348,-72.574 -166.348,-163.916 0,-2.093 0.052,-4.174 0.13,-6.249 C -80.564,-160.612 -9.447,-89.511 0,0" style="fill-opacity:1;fill-rule:nonzero;stroke:none" id="path395" fill="#57be92" data-original="#57be92" class=""></path></g><g id="g397" transform="translate(327.8662,348.0669)"><path d="M 0,0 C 0,91.341 -74.704,165.234 -166.347,163.916 -255.118,162.638 -327.302,89.837 -327.863,1.06 c -0.314,-49.718 21.511,-94.34 56.191,-124.606 3.659,-3.194 3.132,-9.023 -1.048,-11.496 l -30.89,-18.277 c -4.994,-2.954 -2.897,-10.611 2.905,-10.609 l 139.877,0.034 C -71.725,-162.238 0,-89.5 0,0" style="fill-opacity:1;fill-rule:nonzero;stroke:none" id="path399" fill="#6466f1" data-original="#8795de" class=""></path></g><g id="g401" transform="translate(161.519,511.9824)"><path d="m 0,0 c -4.383,-0.063 -8.724,-0.307 -13.02,-0.712 83.281,-7.798 148.462,-77.885 148.462,-163.204 0,-89.5 -71.725,-162.237 -160.829,-163.894 l -109.062,-0.026 c 0.032,0 0.06,-0.008 0.091,-0.008 l 139.877,0.034 c 89.104,1.657 160.828,74.394 160.828,163.894 C 166.347,-72.574 91.644,1.319 0,0" style="fill-opacity:1;fill-rule:nonzero;stroke:none" id="path403" fill="#5355ef" data-original="#6c7fd8" class=""></path></g><g id="g405" transform="translate(146.7192,237.0439)"><path d="m 0,0 c 0,-9.507 7.707,-17.214 17.213,-17.214 9.508,0 17.214,7.707 17.214,17.214 0,9.507 -7.706,17.213 -17.214,17.213 C 7.707,17.213 0,9.507 0,0" style="fill-opacity:1;fill-rule:nonzero;stroke:none" id="path407" fill="#ffffff" data-original="#ffffff" class=""></path></g><g id="g409" transform="translate(163.9326,285.1221)"><path d="m 0,0 c -8.535,0 -15.453,6.918 -15.453,15.453 v 55.029 c 0,8.535 6.918,15.453 15.453,15.453 10.288,0 19.861,4.116 26.957,11.59 7.09,7.468 10.7,17.263 10.165,27.581 -1.004,19.33 -16.969,34.777 -36.347,35.167 -18.868,0.382 -34.994,-13.36 -37.588,-31.961 -0.24,-1.709 -0.36,-3.46 -0.36,-5.204 0,-8.534 -6.919,-15.453 -15.453,-15.453 -8.534,0 -15.453,6.919 -15.453,15.453 0,3.169 0.222,6.358 0.657,9.477 4.693,33.635 33.551,58.602 67.428,58.602 0.464,0 0.926,-0.005 1.391,-0.015 35.5,-0.714 64.749,-29.03 66.588,-64.463 C 68.964,107.842 62.353,89.92 49.369,76.245 40.173,66.56 28.298,59.842 15.453,56.826 V 15.453 C 15.453,6.918 8.534,0 0,0" style="fill-opacity:1;fill-rule:nonzero;stroke:none" id="path411" fill="#ffffff" data-original="#ffffff" class=""></path></g><g id="g413" transform="translate(330.853,163.9307)"><path d="m 0,0 c 0,-9.507 7.707,-17.214 17.214,-17.214 9.507,0 17.214,7.707 17.214,17.214 0,9.507 -7.707,17.214 -17.214,17.214 C 7.707,17.214 0,9.507 0,0" style="fill-opacity:1;fill-rule:nonzero;stroke:none" id="path415" fill="#ffffff" data-original="#ffffff" class=""></path></g><g id="g417" transform="translate(408.1167,163.9307)"><path d="m 0,0 c 0,-9.507 7.707,-17.214 17.214,-17.214 9.507,0 17.213,7.707 17.213,17.214 0,9.507 -7.706,17.214 -17.213,17.214 C 7.707,17.214 0,9.507 0,0" style="fill-opacity:1;fill-rule:nonzero;stroke:none" id="path419" fill="#ffffff" data-original="#ffffff" class=""></path></g><g id="g421" transform="translate(253.5894,163.9307)"><path d="m 0,0 c 0,-9.507 7.707,-17.214 17.214,-17.214 9.507,0 17.214,7.707 17.214,17.214 0,9.507 -7.707,17.214 -17.214,17.214 C 7.707,17.214 0,9.507 0,0" style="fill-opacity:1;fill-rule:nonzero;stroke:none" id="path423" fill="#ffffff" data-original="#ffffff" class=""></path></g></g></g></g></g></svg>