<svg xmlns="http://www.w3.org/2000/svg" viewBox="0 0 1000 1000" width="1000" height="1000" preserveAspectRatio="xMidYMid meet" style="width: 100%; height: 100%; transform: translate3d(0px, 0px, 0px);"><defs><clipPath id="__lottie_element_2"><rect width="1000" height="1000" x="0" y="0"></rect></clipPath></defs><g clip-path="url(#__lottie_element_2)"><g transform="matrix(1,0,0,1,690.7940063476562,247.88900756835938)" opacity="1" style="display: block;"><g opacity="1" transform="matrix(1,0,0,1,86.43000030517578,59.73699951171875)"><path fill="rgb(166,125,255)" fill-opacity="1" d=" M59.48699951171875,0 C59.48699951171875,32.854000091552734 32.85300064086914,59.48699951171875 0,59.48699951171875 C-32.854000091552734,59.48699951171875 -59.48699951171875,32.854000091552734 -59.48699951171875,0 C-59.48699951171875,-32.854000091552734 -32.854000091552734,-59.48699951171875 0.0010000000474974513,-59.48699951171875 C32.854000091552734,-59.48699951171875 59.48699951171875,-32.854000091552734 59.48699951171875,0z"></path></g><g opacity="1" transform="matrix(1,0,0,1,86.43000030517578,302.1830139160156)"><path fill="rgb(166,125,255)" fill-opacity="1" d=" M-4.165999889373779,-179.66700744628906 C-50.51900100708008,-177.48399353027344 -86.17900085449219,-137.55599975585938 -86.18000030517578,-91.1520004272461 C-86.18000030517578,-91.1520004272461 -86.18000030517578,6.466000080108643 -86.18000030517578,6.466000080108643 C-86.18000030517578,24.76300048828125 -71.20899963378906,39.733001708984375 -52.9119987487793,39.733001708984375 C-52.9119987487793,39.733001708984375 -47.974998474121094,39.733001708984375 -47.974998474121094,39.733001708984375 C-47.974998474121094,39.733001708984375 -47.974998474121094,176.45199584960938 -47.974998474121094,176.45199584960938 C-47.974998474121094,179.51300048828125 -45.49300003051758,181.9969940185547 -42.430999755859375,181.9969940185547 C-42.430999755859375,181.9969940185547 42.430999755859375,181.9969940185547 42.430999755859375,181.9969940185547 C45.492000579833984,181.9969940185547 47.974998474121094,179.51300048828125 47.974998474121094,176.45199584960938 C47.974998474121094,176.45199584960938 47.974998474121094,39.733001708984375 47.974998474121094,39.733001708984375 C47.974998474121094,39.733001708984375 52.91299819946289,39.733001708984375 52.91299819946289,39.733001708984375 C71.20899963378906,39.733001708984375 86.18000030517578,24.76300048828125 86.18000030517578,6.466000080108643 C86.18000030517578,6.466000080108643 86.18000030517578,-93.58399963378906 86.18000030517578,-93.58399963378906 C86.18000030517578,-142.56100463867188 45.32400131225586,-181.9969940185547 -4.165999889373779,-179.66700744628906z"></path></g></g><g transform="matrix(1,0,0,1,579.9039916992188,256.18353271484375)" opacity="1" style="display: block;"><g opacity="1" transform="matrix(1,0,0,1,86.43000030517578,59.73699951171875)"><path fill="rgb(82,219,255)" fill-opacity="1" d=" M59.48699951171875,0 C59.48699951171875,32.854000091552734 32.854000091552734,59.48699951171875 0,59.48699951171875 C-32.854000091552734,59.48699951171875 -59.48699951171875,32.85300064086914 -59.48699951171875,0 C-59.48699951171875,-32.854000091552734 -32.85300064086914,-59.48699951171875 0.0010000000474974513,-59.48699951171875 C32.854000091552734,-59.48699951171875 59.48699951171875,-32.854000091552734 59.48699951171875,0z"></path></g><g opacity="1" transform="matrix(1,0,0,1,86.43000030517578,302.1830139160156)"><path fill="rgb(82,219,255)" fill-opacity="1" d=" M-4.164999961853027,-179.66700744628906 C-50.518001556396484,-177.48500061035156 -86.17900085449219,-137.55599975585938 -86.17900085449219,-91.1520004272461 C-86.17900085449219,-91.1520004272461 -86.18000030517578,6.466000080108643 -86.18000030517578,6.466000080108643 C-86.18000030517578,24.76300048828125 -71.20899963378906,39.733001708984375 -52.9119987487793,39.733001708984375 C-52.9119987487793,39.733001708984375 -47.974998474121094,39.733001708984375 -47.974998474121094,39.733001708984375 C-47.974998474121094,39.733001708984375 -47.974998474121094,176.45199584960938 -47.974998474121094,176.45199584960938 C-47.974998474121094,179.51400756835938 -45.492000579833984,181.9969940185547 -42.430999755859375,181.9969940185547 C-42.430999755859375,181.9969940185547 42.430999755859375,181.9969940185547 42.430999755859375,181.9969940185547 C45.492000579833984,181.9969940185547 47.974998474121094,179.51300048828125 47.974998474121094,176.45199584960938 C47.974998474121094,176.45199584960938 47.974998474121094,39.733001708984375 47.974998474121094,39.733001708984375 C47.974998474121094,39.733001708984375 52.91299819946289,39.733001708984375 52.91299819946289,39.733001708984375 C71.20999908447266,39.733001708984375 86.18000030517578,24.76300048828125 86.18000030517578,6.466000080108643 C86.18000030517578,6.466000080108643 86.18000030517578,-93.58499908447266 86.18000030517578,-93.58499908447266 C86.18000030517578,-142.56199645996094 45.32400131225586,-181.9969940185547 -4.164999961853027,-179.66700744628906z"></path></g></g><g transform="matrix(1,0,0,1,469.0159912109375,257.7836608886719)" opacity="1" style="display: block;"><g opacity="1" transform="matrix(1,0,0,1,86.43000030517578,59.73699951171875)"><path fill="rgb(0,220,171)" fill-opacity="1" d=" M59.48699951171875,0 C59.48699951171875,32.854000091552734 32.85300064086914,59.48699951171875 0,59.48699951171875 C-32.854000091552734,59.48699951171875 -59.48699951171875,32.854000091552734 -59.48699951171875,0 C-59.48699951171875,-32.854000091552734 -32.854000091552734,-59.48699951171875 0,-59.486000061035156 C32.85300064086914,-59.486000061035156 59.48699951171875,-32.854000091552734 59.48699951171875,0z"></path></g><g opacity="1" transform="matrix(1,0,0,1,86.42900085449219,302.1839904785156)"><path fill="rgb(0,220,171)" fill-opacity="1" d=" M-4.164999961853027,-179.66700744628906 C-50.518001556396484,-177.48500061035156 -86.17900085449219,-137.55599975585938 -86.17900085449219,-91.1520004272461 C-86.17900085449219,-91.1520004272461 -86.17900085449219,6.465000152587891 -86.17900085449219,6.465000152587891 C-86.17900085449219,24.761999130249023 -71.20899963378906,39.733001708984375 -52.9119987487793,39.733001708984375 C-52.9119987487793,39.733001708984375 -47.97600173950195,39.733001708984375 -47.97600173950195,39.733001708984375 C-47.97600173950195,39.733001708984375 -47.97600173950195,176.4510040283203 -47.97600173950195,176.4510040283203 C-47.97600173950195,179.51300048828125 -45.49300003051758,181.99600219726562 -42.43199920654297,181.99600219726562 C-42.43199920654297,181.99600219726562 42.43000030517578,181.99600219726562 42.43000030517578,181.99600219726562 C45.49100112915039,181.99600219726562 47.9739990234375,179.51300048828125 47.9739990234375,176.4510040283203 C47.9739990234375,176.4510040283203 47.97600173950195,39.733001708984375 47.97600173950195,39.733001708984375 C47.97600173950195,39.733001708984375 52.9119987487793,39.733001708984375 52.9119987487793,39.733001708984375 C71.20899963378906,39.733001708984375 86.17900085449219,24.76300048828125 86.17900085449219,6.466000080108643 C86.17900085449219,6.466000080108643 86.17900085449219,-93.58499908447266 86.17900085449219,-93.58499908447266 C86.17900085449219,-142.56199645996094 45.32400131225586,-181.9969940185547 -4.164999961853027,-179.66700744628906z"></path></g></g><g transform="matrix(1,0,0,1,358.125,257.7850036621094)" opacity="1" style="display: block;"><g opacity="1" transform="matrix(1,0,0,1,86.43000030517578,59.73699951171875)"><path fill="rgb(255,221,0)" fill-opacity="1" d=" M59.48699951171875,0 C59.48699951171875,32.854000091552734 32.85300064086914,59.48699951171875 0,59.486000061035156 C-32.854000091552734,59.486000061035156 -59.48699951171875,32.854000091552734 -59.48699951171875,0 C-59.48699951171875,-32.854000091552734 -32.854000091552734,-59.48699951171875 0,-59.48699951171875 C32.85300064086914,-59.48699951171875 59.48699951171875,-32.854000091552734 59.48699951171875,0z"></path></g><g opacity="1" transform="matrix(1,0,0,1,86.42900085449219,302.1830139160156)"><path fill="rgb(255,221,0)" fill-opacity="1" d=" M-4.164999961853027,-179.66700744628906 C-50.518001556396484,-177.48399353027344 -86.17900085449219,-137.55599975585938 -86.17900085449219,-91.1520004272461 C-86.17900085449219,-91.1520004272461 -86.17900085449219,6.466000080108643 -86.17900085449219,6.466000080108643 C-86.17900085449219,24.76300048828125 -71.20899963378906,39.733001708984375 -52.9119987487793,39.733001708984375 C-52.9119987487793,39.733001708984375 -47.97600173950195,39.733001708984375 -47.97600173950195,39.733001708984375 C-47.97600173950195,39.733001708984375 -47.97600173950195,176.4510040283203 -47.97600173950195,176.4510040283203 C-47.97600173950195,179.51400756835938 -45.492000579833984,181.99600219726562 -42.43000030517578,181.99600219726562 C-42.43000030517578,181.99600219726562 42.43000030517578,181.99600219726562 42.43000030517578,181.99600219726562 C45.492000579833984,181.99600219726562 47.974998474121094,179.51400756835938 47.974998474121094,176.4510040283203 C47.974998474121094,176.4510040283203 47.97600173950195,39.733001708984375 47.97600173950195,39.733001708984375 C47.97600173950195,39.733001708984375 52.9119987487793,39.733001708984375 52.9119987487793,39.733001708984375 C71.20899963378906,39.733001708984375 86.17900085449219,24.76300048828125 86.17900085449219,6.4670000076293945 C86.17900085449219,6.4670000076293945 86.17900085449219,-93.58499908447266 86.17900085449219,-93.58499908447266 C86.17900085449219,-142.56199645996094 45.32400131225586,-181.9969940185547 -4.164999961853027,-179.66700744628906z"></path></g></g><g transform="matrix(1,0,0,1,247.2360076904297,257.7850036621094)" opacity="1" style="display: block;"><g opacity="1" transform="matrix(1,0,0,1,86.43000030517578,59.736000061035156)"><path fill="rgb(255,133,33)" fill-opacity="1" d=" M59.48699951171875,0 C59.48699951171875,32.854000091552734 32.854000091552734,59.48699951171875 0,59.48699951171875 C-32.85300064086914,59.48699951171875 -59.48699951171875,32.85300064086914 -59.48699951171875,0 C-59.48699951171875,-32.854000091552734 -32.85300064086914,-59.48699951171875 0,-59.48699951171875 C32.854000091552734,-59.48699951171875 59.48699951171875,-32.854000091552734 59.48699951171875,0z"></path></g><g opacity="1" transform="matrix(1,0,0,1,86.42900085449219,302.1830139160156)"><path fill="rgb(255,133,33)" fill-opacity="1" d=" M-4.164999961853027,-179.66700744628906 C-50.518001556396484,-177.48500061035156 -86.18000030517578,-137.55599975585938 -86.18000030517578,-91.1520004272461 C-86.18000030517578,-91.1520004272461 -86.18000030517578,6.466000080108643 -86.18000030517578,6.466000080108643 C-86.18000030517578,24.76300048828125 -71.20999908447266,39.731998443603516 -52.91299819946289,39.731998443603516 C-52.91299819946289,39.731998443603516 -47.974998474121094,39.731998443603516 -47.974998474121094,39.731998443603516 C-47.974998474121094,39.731998443603516 -47.97600173950195,176.4510040283203 -47.97600173950195,176.4510040283203 C-47.97600173950195,179.51400756835938 -45.49300003051758,181.9949951171875 -42.430999755859375,181.9949951171875 C-42.430999755859375,181.9949951171875 42.43000030517578,181.99600219726562 42.43000030517578,181.99600219726562 C45.492000579833984,181.99600219726562 47.9739990234375,179.51400756835938 47.9739990234375,176.4510040283203 C47.9739990234375,176.4510040283203 47.974998474121094,39.733001708984375 47.974998474121094,39.733001708984375 C47.974998474121094,39.733001708984375 52.9119987487793,39.733001708984375 52.9119987487793,39.733001708984375 C71.20899963378906,39.733001708984375 86.18000030517578,24.76300048828125 86.18000030517578,6.466000080108643 C86.18000030517578,6.466000080108643 86.18000030517578,-93.58499908447266 86.18000030517578,-93.58499908447266 C86.18000030517578,-142.56199645996094 45.32500076293945,-181.9969940185547 -4.164999961853027,-179.66700744628906z"></path></g></g></g></svg>